<?xml version="1.0" standalone="no"?>
<!DOCTYPE svg PUBLIC "-//W3C//DTD SVG 20010904//EN"
 "http://www.w3.org/TR/2001/REC-SVG-20010904/DTD/svg10.dtd">
<svg version="1.0" xmlns="http://www.w3.org/2000/svg"
 width="256.000000pt" height="256.000000pt" viewBox="0 0 256.000000 256.000000"
 preserveAspectRatio="xMidYMid meet">
<metadata>
Created by potrace 1.11, written by Peter Selinger 2001-2013
</metadata>
<g transform="translate(0.000000,256.000000) scale(0.100000,-0.100000)"
fill="#000000" stroke="none">
<path d="M0 1290 l0 -1040 880 0 880 0 0 1040 0 1040 -880 0 -880 0 0 -1040z
m1600 0 l0 -880 -720 0 -720 0 0 880 0 880 720 0 720 0 0 -880z"/>
<path d="M480 1770 l0 -80 400 0 400 0 0 80 0 80 -400 0 -400 0 0 -80z"/>
<path d="M480 1450 l0 -80 400 0 400 0 0 80 0 80 -400 0 -400 0 0 -80z"/>
<path d="M480 1130 l0 -80 400 0 400 0 0 80 0 80 -400 0 -400 0 0 -80z"/>
<path d="M480 810 l0 -80 240 0 240 0 0 80 0 80 -240 0 -240 0 0 -80z"/>
<path d="M2080 1529 l0 -801 49 -96 c27 -54 80 -159 117 -234 38 -76 71 -138
75 -138 3 0 58 106 122 235 l117 235 0 800 0 800 -240 0 -240 0 0 -801z m320
561 l0 -80 -80 0 -80 0 0 80 0 80 80 0 80 0 0 -80z m0 -347 c1 -122 1 -633 0
-765 l0 -88 -80 0 -80 0 0 480 0 480 80 0 80 0 0 -107z"/>
</g>
</svg>
